<svg width="240" height="240" xmlns="http://www.w3.org/2000/svg">
  <rect width="240" height="240" fill="white"/>
  <path d="M120 60C93.49 60 72 81.49 72 108C72 134.51 93.49 156 120 156C146.51 156 168 134.51 168 108C168 81.49 146.51 60 120 60ZM120 84C133.25 84 144 94.75 144 108C144 121.25 133.25 132 120 132C106.75 132 96 121.25 96 108C96 94.75 106.75 84 120 84Z" fill="#d1d1d1"/>
  <path d="M80 180H90.9C97.2 180 103.2 182.8 107.4 187C111.6 191.2 114.4 197.2 114.4 203.5V210H125.6V203.5C125.6 197.2 128.4 191.2 132.6 187C136.8 182.8 142.8 180 149.1 180H160M80 180V191H69V180M160 180V191H171V180" stroke="#d1d1d1" stroke-width="6"/>
</svg> 